<mxfile host="app.diagrams.net" modified="2024-01-19T23:30:58.497Z" agent="Mozilla/5.0 (Macintosh; Intel Mac OS X 10_15_7) AppleWebKit/537.36 (KHTML, like Gecko) Chrome/120.0.0.0 Safari/537.36" version="22.1.21" etag="7h7NfmZKCOqtoW8uB6DB" type="github">
  <diagram name="第 1 页" id="ywzt-Rvzdlt7DxjaTOy3">
    <mxGraphModel>
      <root>
        <mxCell id="0" />
        <mxCell id="1" parent="0" />
      </root>
    </mxGraphModel>
  </diagram>
</mxfile>
